<svg width="24" height="24" viewBox="0 0 24 24" fill="none" xmlns="http://www.w3.org/2000/svg">
<g clip-path="url(#clip0_188_2023)">
<mask id="mask0_188_2023" style="mask-type:luminance" maskUnits="userSpaceOnUse" x="0" y="0" width="24" height="24">
<path d="M24 0H0V24H24V0Z" fill="white"/>
</mask>
<g mask="url(#mask0_188_2023)">
<path d="M19.75 16.77L18.67 17.02C17.9 17.2 17.29 17.8 17.11 18.57L16.86 19.65C16.84 19.76 16.67 19.76 16.64 19.65L16.39 18.57C16.21 17.8 15.61 17.19 14.84 17.01L13.76 16.76C13.65 16.74 13.65 16.57 13.76 16.54L14.84 16.29C15.61 16.11 16.22 15.51 16.4 14.74L16.65 13.66C16.67 13.55 16.84 13.55 16.87 13.66L17.12 14.74C17.3 15.51 17.9 16.12 18.67 16.3L19.75 16.55C19.86 16.57 19.86 16.74 19.75 16.77Z" stroke="#FAFAFA" stroke-width="1.5" stroke-miterlimit="10"/>
<path d="M12 2C14.76 2 17 4.24 17 7C17 9.76 14.76 12 12 12C9.24 12 7 9.76 7 7" stroke="#FAFAFA" stroke-width="1.5" stroke-linecap="round" stroke-linejoin="round"/>
<path d="M12 15C7.25997 15 3.40997 18.13 3.40997 22" stroke="#FAFAFA" stroke-width="1.5" stroke-linecap="round" stroke-linejoin="round"/>
<path d="M20.59 22.0001C20.59 21.0901 20.38 20.2301 19.99 19.4301" stroke="#FAFAFA" stroke-width="1.5" stroke-linecap="round" stroke-linejoin="round"/>
</g>
</g>
<defs>
<clipPath id="clip0_188_2023">
<rect width="24" height="24" fill="white"/>
</clipPath>
</defs>
</svg>
