<svg width="29" height="30" viewBox="0 0 29 30" fill="none" xmlns="http://www.w3.org/2000/svg">
<g clip-path="url(#clip0_230_13909)">
<mask id="mask0_230_13909" style="mask-type:luminance" maskUnits="userSpaceOnUse" x="0" y="0" width="29" height="30">
<path d="M29 0.889648H0V29.8896H29V0.889648Z" fill="white"/>
</mask>
<g mask="url(#mask0_230_13909)">
<path opacity="0.4" d="M21.7472 9.54115C21.6747 9.52907 21.5902 9.52907 21.5177 9.54115C19.8502 9.48074 18.521 8.11532 18.521 6.42365C18.521 4.69574 19.9106 3.30615 21.6385 3.30615C23.3664 3.30615 24.756 4.70782 24.756 6.42365C24.7439 8.11532 23.4147 9.48074 21.7472 9.54115Z" stroke="#0007E3" stroke-width="1.8125" stroke-linecap="round" stroke-linejoin="round"/>
<path opacity="0.4" d="M20.5024 18.3381C22.1579 18.616 23.9824 18.326 25.2633 17.4681C26.967 16.3322 26.967 14.4714 25.2633 13.3356C23.9704 12.4776 22.1216 12.1876 20.4662 12.4776" stroke="#0007E3" stroke-width="1.8125" stroke-linecap="round" stroke-linejoin="round"/>
<path opacity="0.4" d="M7.2109 9.54115C7.2834 9.52907 7.36798 9.52907 7.44048 9.54115C9.10798 9.48074 10.4371 8.11532 10.4371 6.42365C10.4371 4.69574 9.04756 3.30615 7.31965 3.30615C5.59173 3.30615 4.20215 4.70782 4.20215 6.42365C4.21423 8.11532 5.5434 9.48074 7.2109 9.54115Z" stroke="#0007E3" stroke-width="1.8125" stroke-linecap="round" stroke-linejoin="round"/>
<path opacity="0.4" d="M8.45539 18.3381C6.79998 18.616 4.97539 18.326 3.69456 17.4681C1.99081 16.3322 1.99081 14.4714 3.69456 13.3356C4.98748 12.4776 6.83623 12.1876 8.49164 12.4776" stroke="#0007E3" stroke-width="1.8125" stroke-linecap="round" stroke-linejoin="round"/>
<path d="M14.5001 18.567C14.4276 18.5549 14.343 18.5549 14.2705 18.567C12.603 18.5066 11.2738 17.1412 11.2738 15.4495C11.2738 13.7216 12.6634 12.332 14.3914 12.332C16.1193 12.332 17.5089 13.7337 17.5089 15.4495C17.4968 17.1412 16.1676 18.5187 14.5001 18.567Z" stroke="#0007E3" stroke-width="1.8125" stroke-linecap="round" stroke-linejoin="round"/>
<path d="M10.9837 22.3727C9.28 23.5086 9.28 25.3694 10.9837 26.5052C12.9171 27.7982 16.0829 27.7982 18.0163 26.5052C19.72 25.3694 19.72 23.5086 18.0163 22.3727C16.095 21.0919 12.9171 21.0919 10.9837 22.3727Z" stroke="#0007E3" stroke-width="1.8125" stroke-linecap="round" stroke-linejoin="round"/>
</g>
</g>
<defs>
<clipPath id="clip0_230_13909">
<rect width="29" height="29" fill="white" transform="translate(0 0.889648)"/>
</clipPath>
</defs>
</svg>
