<svg width="25" height="25" viewBox="0 0 25 25" fill="none" xmlns="http://www.w3.org/2000/svg">
<g clip-path="url(#clip0_188_2124)">
<mask id="mask0_188_2124" style="mask-type:luminance" maskUnits="userSpaceOnUse" x="0" y="0" width="25" height="25">
<path d="M24.3125 0.959961H0.3125V24.96H24.3125V0.959961Z" fill="white"/>
</mask>
<g mask="url(#mask0_188_2124)">
<path d="M4.97253 24.0401C4.56253 24.0401 4.22253 23.7601 4.14253 23.3701L3.91253 22.3901C3.81253 21.9601 3.47253 21.6201 3.05253 21.5201L2.06253 21.2901C1.67253 21.2101 1.40253 20.8601 1.40253 20.4601C1.40253 20.0501 1.68253 19.7101 2.08253 19.6301L3.05253 19.4001C3.48253 19.3001 3.82253 18.9601 3.92253 18.5401L4.15253 17.5501C4.23253 17.1701 4.58253 16.8901 4.98253 16.8901C5.39253 16.8901 5.73253 17.1701 5.81253 17.5601L6.04253 18.5401C6.14253 18.9701 6.48253 19.3101 6.90253 19.4101L7.89253 19.6401C8.27253 19.7201 8.55253 20.0701 8.55253 20.4701C8.55253 20.8701 8.28253 21.2201 7.89253 21.3001L6.90253 21.5301C6.47253 21.6301 6.13253 21.9701 6.03253 22.3901L5.80253 23.3801C5.72253 23.7601 5.37253 24.0401 4.97253 24.0401ZM4.29253 20.4701C4.56253 20.6501 4.79253 20.8901 4.97253 21.1501C5.15253 20.8801 5.38253 20.6501 5.65253 20.4701C5.38253 20.2901 5.15253 20.0501 4.97253 19.7901C4.79253 20.0501 4.56253 20.2901 4.29253 20.4701Z" fill="#E2E2E2"/>
<path d="M9.3925 12.58C6.52919 12.58 4.1225 10.2954 4.1225 7.39996C4.1225 4.58996 6.4525 2.20996 9.3125 2.20996C12.1725 2.20996 14.5025 4.53996 14.5025 7.39996C14.4926 10.1693 12.1764 12.58 9.3925 12.58ZM9.3125 3.70996C7.2825 3.70996 5.6225 5.36996 5.6225 7.39996C5.6225 9.45166 7.28444 11.0626 9.3125 11.0725C11.3267 11.0824 12.9923 9.41875 13.0025 7.39996C13.0025 5.36996 11.3425 3.70996 9.3125 3.70996Z" fill="#E2E2E2"/>
<path d="M16.8825 12.72C16.4825 12.76 15.9325 12.46 15.8925 12.05C15.8525 11.64 16.1025 11.27 16.5125 11.22C16.7481 11.2004 16.9755 11.2227 17.21 11.1809C18.5045 10.9499 19.4725 9.82458 19.4725 8.46997C19.4725 6.99997 18.2425 5.71997 16.7225 5.71997C16.3125 5.71997 15.9725 5.37997 15.9725 4.96997C15.9725 4.55997 16.3125 4.21997 16.7225 4.21997C19.0625 4.21997 20.9725 6.12997 20.9725 8.46997C20.9725 10.81 19.1725 12.63 16.8825 12.72C16.9286 12.72 16.8418 12.72 16.8825 12.72Z" fill="#E2E2E2"/>
<path d="M9.48251 23.5299C9.42251 23.5299 9.36251 23.5199 9.30251 23.5199C8.89251 23.5199 8.56251 23.1699 8.56251 22.7599C8.56251 22.3499 8.94251 22.0399 9.32251 22.0199C11.0925 22.0499 12.8325 21.5899 14.0625 20.7699C15.0225 20.1299 15.5425 19.3099 15.5425 18.4499C15.5425 17.5999 15.0125 16.7799 14.0625 16.1499C12.8325 15.3299 11.1125 14.8699 9.32251 14.8999C8.39251 14.9199 7.46251 15.0599 6.63251 15.3299C6.28251 15.4399 5.95251 15.5699 5.64251 15.7199C5.27251 15.8999 4.82251 15.7399 4.64251 15.3699C4.46251 14.9999 4.62251 14.5499 4.99251 14.3699C5.36251 14.1899 5.76251 14.0299 6.17251 13.8999C7.15251 13.5899 8.20251 13.4199 9.29251 13.3999C11.4225 13.3499 13.3925 13.8999 14.8925 14.8999C16.2725 15.8199 17.0425 17.0799 17.0425 18.4499C17.0425 19.8199 16.2825 21.0899 14.8925 22.0199C13.4325 22.9899 11.5225 23.5299 9.48251 23.5299Z" fill="#E2E2E2"/>
<path d="M18.6525 21.71C18.3025 21.71 17.9925 21.47 17.9225 21.11C17.8425 20.7 18.1025 20.31 18.5025 20.22C19.1325 20.09 19.7125 19.84 20.1625 19.49C20.7325 19.06 21.0425 18.52 21.0425 17.95C21.0425 17.38 20.7325 16.84 20.1725 16.41C19.7325 16.07 19.1825 15.83 18.5325 15.68C18.1325 15.59 17.8725 15.19 17.9625 14.78C18.0525 14.38 18.4525 14.12 18.8625 14.21C19.7225 14.4 20.4725 14.74 21.0825 15.21C22.0125 15.91 22.5425 16.9 22.5425 17.94C22.5425 18.98 22.0025 19.97 21.0725 20.67C20.6489 20.998 20.1505 21.2653 19.603 21.4559C19.323 21.5534 18.9539 21.71 18.6525 21.71Z" fill="#E2E2E2"/>
</g>
</g>
<defs>
<clipPath id="clip0_188_2124">
<rect width="24" height="24" fill="white" transform="translate(0.3125 0.959961)"/>
</clipPath>
</defs>
</svg>
