<svg width="28" height="29" viewBox="0 0 28 29" fill="none" xmlns="http://www.w3.org/2000/svg">
<g clip-path="url(#clip0_230_13894)">
<mask id="mask0_230_13894" style="mask-type:luminance" maskUnits="userSpaceOnUse" x="0" y="0" width="28" height="29">
<path d="M28 0.889648H0V28.8896H28V0.889648Z" fill="white"/>
</mask>
<g mask="url(#mask0_230_13894)">
<path opacity="0.4" d="M21.5833 15.6487V19.9653C21.5833 23.6053 18.1883 26.557 14 26.557C9.81163 26.557 6.41663 23.6053 6.41663 19.9653V15.6487C6.41663 19.2887 9.81163 21.8903 14 21.8903C18.1883 21.8903 21.5833 19.2887 21.5833 15.6487Z" stroke="#0007E3" stroke-width="1.75" stroke-linecap="round" stroke-linejoin="round"/>
<path d="M21.5833 9.81481C21.5833 10.8765 21.2916 11.8565 20.7783 12.6965C19.53 14.7498 16.9633 16.0565 14 16.0565C11.0366 16.0565 8.46996 14.7498 7.22163 12.6965C6.70829 11.8565 6.41663 10.8765 6.41663 9.81481C6.41663 7.99481 7.26828 6.34981 8.63328 5.15981C10.0099 3.95814 11.9 3.22314 14 3.22314C16.1 3.22314 17.99 3.95814 19.3666 5.14814C20.7316 6.34981 21.5833 7.99481 21.5833 9.81481Z" stroke="#0007E3" stroke-width="1.75" stroke-linecap="round" stroke-linejoin="round"/>
<path d="M21.5833 9.81481V15.6481C21.5833 19.2881 18.1883 21.8898 14 21.8898C9.81163 21.8898 6.41663 19.2881 6.41663 15.6481V9.81481C6.41663 6.17481 9.81163 3.22314 14 3.22314C16.1 3.22314 17.99 3.95814 19.3666 5.14814C20.7316 6.34981 21.5833 7.99481 21.5833 9.81481Z" stroke="#0007E3" stroke-width="1.75" stroke-linecap="round" stroke-linejoin="round"/>
</g>
</g>
<defs>
<clipPath id="clip0_230_13894">
<rect width="28" height="28" fill="white" transform="translate(0 0.889648)"/>
</clipPath>
</defs>
</svg>
