<svg width="21" height="22" viewBox="0 0 21 22" fill="none" xmlns="http://www.w3.org/2000/svg">
<g clip-path="url(#clip0_230_14000)">
<mask id="mask0_230_14000" style="mask-type:luminance" maskUnits="userSpaceOnUse" x="0" y="0" width="21" height="22">
<path d="M21 0.817383H0V21.8174H21V0.817383Z" fill="white"/>
</mask>
<g mask="url(#mask0_230_14000)">
<path d="M10.5 2.56738C15.33 2.56738 19.25 6.48738 19.25 11.3174C19.25 16.1474 15.33 20.0674 10.5 20.0674C8.89 20.0674 7.37625 19.6299 6.0725 18.8686L1.75 20.0674L2.92253 15.6924C2.17878 14.4061 1.75 12.9099 1.75 11.3174C1.75 8.07988 3.50875 5.25363 6.125 3.73988" stroke="white" stroke-width="1.3125" stroke-miterlimit="10" stroke-linecap="round" stroke-linejoin="round"/>
<path d="M14.875 14.0916C14.875 14.2491 14.84 14.4153 14.7613 14.5728C14.6825 14.7303 14.5863 14.8791 14.4638 15.0191C14.245 15.2553 14.0088 15.4303 13.7463 15.5353C13.4838 15.6491 13.195 15.7016 12.8887 15.7016C12.4425 15.7016 11.9613 15.5966 11.4625 15.3778C10.955 15.1591 10.4563 14.8703 9.9575 14.5116C9.45 14.1441 8.9775 13.7328 8.52249 13.2866C8.06749 12.8316 7.66503 12.3502 7.29753 11.8515C6.93878 11.3527 6.64999 10.8541 6.43999 10.3553C6.22999 9.85657 6.125 9.37529 6.125 8.92029C6.125 8.62279 6.17749 8.33404 6.28249 8.07154C6.38749 7.80029 6.55376 7.55529 6.79001 7.33654C7.07001 7.05654 7.37624 6.92529 7.69999 6.92529C7.82249 6.92529 7.94502 6.95154 8.05877 7.00404C8.17252 7.05654 8.27749 7.13528 8.35624 7.24903L9.37125 8.68403C9.45 8.79778 9.51125 8.89403 9.54625 8.99028C9.59 9.08653 9.6075 9.17403 9.6075 9.26153C9.6075 9.36653 9.5725 9.47154 9.51125 9.57657C9.45 9.68157 9.37125 9.78657 9.26625 9.89157L8.93375 10.2415C8.88125 10.294 8.86375 10.3466 8.86375 10.4166C8.86375 10.4516 8.8725 10.4866 8.88125 10.5216C8.89875 10.5566 8.9075 10.5828 8.91625 10.6091C8.995 10.7578 9.135 10.9415 9.3275 11.169C9.52875 11.3965 9.73875 11.6328 9.96625 11.8603C10.2025 12.0966 10.43 12.3065 10.6662 12.5077C10.8937 12.7002 11.0863 12.8316 11.235 12.9103C11.2613 12.9191 11.2875 12.9365 11.3138 12.9452C11.3488 12.9627 11.3838 12.9628 11.4275 12.9628C11.5063 12.9628 11.5588 12.9366 11.6113 12.8841L11.9437 12.5516C12.0575 12.4378 12.1625 12.3591 12.2588 12.3066C12.3638 12.2453 12.46 12.2102 12.5737 12.2102C12.6612 12.2102 12.7488 12.2278 12.845 12.2716C12.9413 12.3153 13.0462 12.3678 13.1512 12.4466L14.6038 13.4791C14.7175 13.5578 14.7962 13.6541 14.8487 13.7591C14.8487 13.8641 14.875 13.9691 14.875 14.0916Z" stroke="white" stroke-width="1.3125" stroke-miterlimit="10"/>
</g>
</g>
<defs>
<clipPath id="clip0_230_14000">
<rect width="21" height="21" fill="white" transform="translate(0 0.817383)"/>
</clipPath>
</defs>
</svg>
