<svg width="28" height="28" viewBox="0 0 28 28" fill="none" xmlns="http://www.w3.org/2000/svg">
<g clip-path="url(#clip0_188_2159)">
<mask id="mask0_188_2159" style="mask-type:luminance" maskUnits="userSpaceOnUse" x="0" y="0" width="28" height="28">
<path d="M27.9318 0.340576H0.693176V27.5792H27.9318V0.340576Z" fill="white"/>
</mask>
<g mask="url(#mask0_188_2159)">
<path d="M17.5927 21.0188H7.61656C7.02639 21.0188 6.47025 20.9622 5.97088 20.8487C5.70984 20.8146 5.39207 20.7237 5.06294 20.5989C3.55346 20.0314 1.77161 18.6355 1.77161 15.1626V9.31757C1.77161 5.6063 3.90529 3.47266 7.61656 3.47266H17.5927C20.7252 3.47266 22.7454 4.97075 23.2901 7.69461C23.3923 8.19399 23.4377 8.7274 23.4377 9.31757V15.1626C23.4377 18.8966 21.3153 21.0188 17.5927 21.0188ZM7.62789 5.19779C4.83592 5.19779 3.48534 6.54833 3.48534 9.34029V15.1853C3.48534 17.2169 4.20038 18.4653 5.66446 19.0214C5.89144 19.1009 6.1071 19.1575 6.31139 19.1915C6.74266 19.2823 7.16256 19.3277 7.62789 19.3277H17.6041C20.396 19.3277 21.7466 17.9773 21.7466 15.1853V9.34029C21.7466 8.86361 21.7126 8.44367 21.6331 8.05779C21.2472 6.12839 19.9307 5.19779 17.6041 5.19779H7.62789Z" fill="#E2E2E2"/>
<path d="M20.9975 24.4239H11.0213C10.0566 24.4239 9.19404 24.2878 8.45632 24.004C6.78796 23.3798 5.6984 22.0633 5.32387 20.1793C5.26712 19.8955 5.35794 19.6004 5.56223 19.4075C5.76652 19.2032 6.06162 19.1238 6.34535 19.1919C6.71988 19.2713 7.1398 19.3167 7.61648 19.3167H17.5926C20.3846 19.3167 21.7352 17.9662 21.7352 15.1743V9.32924C21.7352 8.85256 21.7011 8.43263 21.6217 8.04675C21.5649 7.76302 21.6557 7.47928 21.8487 7.27499C22.053 7.0707 22.3367 6.97989 22.6204 7.04799C25.3443 7.60411 26.8424 9.62432 26.8424 12.734V18.5791C26.8424 22.3017 24.7201 24.4239 20.9975 24.4239ZM7.4122 21.0191C7.77538 21.6774 8.32014 22.1428 9.0692 22.4152C9.61398 22.6195 10.2722 22.7215 11.0326 22.7215H21.0088C23.8008 22.7215 25.1514 21.3711 25.1514 18.5791V12.734C25.1514 10.9409 24.5952 9.74918 23.4489 9.12496C23.4489 9.19306 23.4489 9.26114 23.4489 9.32924V15.1743C23.4489 18.8855 21.3153 21.0191 17.604 21.0191H7.6278C7.54836 21.0191 7.4803 21.0191 7.4122 21.0191Z" fill="#E2E2E2"/>
<path d="M12.61 16.1051C10.4876 16.1051 8.76251 14.38 8.76251 12.2577C8.76251 10.1353 10.4876 8.41016 12.61 8.41016C14.7324 8.41016 16.4575 10.1353 16.4575 12.2577C16.4575 14.38 14.7324 16.1051 12.61 16.1051ZM12.61 10.1126C11.4297 10.1126 10.4649 11.0773 10.4649 12.2577C10.4649 13.438 11.4297 14.4027 12.61 14.4027C13.7904 14.4027 14.7551 13.438 14.7551 12.2577C14.7551 11.0773 13.7904 10.1126 12.61 10.1126Z" fill="#E2E2E2"/>
<path d="M6.11854 15.6046C5.65321 15.6046 5.26733 15.2187 5.26733 14.7534V9.75965C5.26733 9.29433 5.65321 8.90845 6.11854 8.90845C6.58387 8.90845 6.96975 9.29433 6.96975 9.75965V14.7534C6.96975 15.2187 6.59522 15.6046 6.11854 15.6046Z" fill="#E2E2E2"/>
<path d="M19.0906 15.6046C18.6253 15.6046 18.2394 15.2187 18.2394 14.7534V9.75965C18.2394 9.29433 18.6253 8.90845 19.0906 8.90845C19.556 8.90845 19.9419 9.29433 19.9419 9.75965V14.7534C19.9419 15.2187 19.5673 15.6046 19.0906 15.6046Z" fill="#E2E2E2"/>
</g>
</g>
<defs>
<clipPath id="clip0_188_2159">
<rect width="27.2386" height="27.2386" fill="white" transform="translate(0.693176 0.340576)"/>
</clipPath>
</defs>
</svg>
