<svg width="22" height="23" viewBox="0 0 22 23" fill="none" xmlns="http://www.w3.org/2000/svg">
<g clip-path="url(#clip0_230_13992)">
<mask id="mask0_230_13992" style="mask-type:luminance" maskUnits="userSpaceOnUse" x="0" y="0" width="22" height="23">
<path d="M22 0.317383H0V22.3174H22V0.317383Z" fill="white"/>
</mask>
<g mask="url(#mask0_230_13992)">
<path d="M8.60742 5.8272C8.77242 6.05637 8.89158 6.2672 8.97408 6.46887C9.05658 6.66137 9.10242 6.85387 9.10242 7.02803C9.10242 7.24803 9.03825 7.46803 8.90992 7.67887C8.79075 7.8897 8.61658 8.1097 8.39658 8.3297L7.69992 9.05387C7.59908 9.1547 7.55325 9.27387 7.55325 9.42053C7.55325 9.49387 7.56242 9.55803 7.58075 9.63137C7.60825 9.7047 7.63575 9.7597 7.65409 9.8147C7.81909 10.1172 8.10325 10.5114 8.50658 10.988C8.91908 11.4647 9.35908 11.9505 9.83575 12.4364C10.3308 12.9222 10.8074 13.3714 11.2933 13.7839C11.7699 14.1872 12.1641 14.4622 12.4758 14.6272C12.5216 14.6455 12.5766 14.673 12.6408 14.7005C12.7141 14.728 12.7874 14.7372 12.8699 14.7372C13.0258 14.7372 13.1449 14.6822 13.2458 14.5814L13.9424 13.8939C14.1716 13.6647 14.3916 13.4905 14.6024 13.3805C14.8133 13.2522 15.0241 13.188 15.2533 13.188C15.4274 13.188 15.6108 13.2247 15.8124 13.3072C16.0141 13.3897 16.2249 13.5089 16.4541 13.6647L19.4883 15.8189C19.7266 15.9839 19.8916 16.1764 19.9924 16.4055C20.0841 16.6347 20.1391 16.8639 20.1391 17.1205C20.1391 17.4505 20.0658 17.7897 19.9099 18.1197C19.7541 18.4497 19.5524 18.7614 19.2866 19.0547C18.8374 19.5497 18.3424 19.9072 17.7833 20.1364C17.2333 20.3655 16.6374 20.4847 15.9958 20.4847C15.0608 20.4847 14.0616 20.2647 13.0074 19.8155C11.9533 19.3664 10.8991 18.7614 9.85408 18.0005C8.79992 17.2305 7.80075 16.378 6.84742 15.4339C5.90325 14.4805 5.05075 13.4814 4.28992 12.4364C3.53825 11.3914 2.93325 10.3464 2.49325 9.31053C2.05325 8.26553 1.83325 7.26637 1.83325 6.31303C1.83325 5.6897 1.94325 5.09387 2.16325 4.54387C2.38325 3.9847 2.73159 3.47137 3.21742 3.01303C3.80409 2.43553 4.44575 2.15137 5.12409 2.15137C5.38075 2.15137 5.63742 2.20637 5.86659 2.31637C6.10492 2.42637 6.31575 2.59137 6.48075 2.8297" stroke="white" stroke-width="1.375" stroke-miterlimit="10" stroke-linecap="round" stroke-linejoin="round"/>
</g>
</g>
<defs>
<clipPath id="clip0_230_13992">
<rect width="22" height="22" fill="white" transform="translate(0 0.317383)"/>
</clipPath>
</defs>
</svg>
