<svg width="32" height="33" viewBox="0 0 32 33" fill="none" xmlns="http://www.w3.org/2000/svg">
<g clip-path="url(#clip0_230_13879)">
<mask id="mask0_230_13879" style="mask-type:luminance" maskUnits="userSpaceOnUse" x="0" y="0" width="32" height="33">
<path d="M32 0.889648H0V32.8896H32V0.889648Z" fill="white"/>
</mask>
<g mask="url(#mask0_230_13879)">
<path d="M29.3333 10.0905C29.3333 5.4238 27.4666 3.55713 22.8 3.55713H17.2C12.5333 3.55713 10.6666 5.4238 10.6666 10.0905V11.5571H14.8C19.4666 11.5571 21.3333 13.4238 21.3333 18.0905V22.2238H22.8C27.4666 22.2238 29.3333 20.3571 29.3333 15.6905" stroke="#0007E3" stroke-width="2" stroke-linecap="round" stroke-linejoin="round"/>
<path d="M2.66663 23.6905C2.66663 28.3571 4.53329 30.2238 9.19996 30.2238H14.8C19.4666 30.2238 21.3333 28.3571 21.3333 23.6905V18.0905C21.3333 13.4238 19.4666 11.5571 14.8 11.5571H9.19996C4.53329 11.5571 2.66663 13.4238 2.66663 18.0905" stroke="#0007E3" stroke-width="2" stroke-linecap="round" stroke-linejoin="round"/>
<path d="M8.10669 20.891L10.7067 23.491L15.8934 18.291" stroke="#0007E3" stroke-width="2" stroke-linecap="round" stroke-linejoin="round"/>
</g>
</g>
<defs>
<clipPath id="clip0_230_13879">
<rect width="32" height="32" fill="white" transform="translate(0 0.889648)"/>
</clipPath>
</defs>
</svg>
