<svg width="30" height="31" viewBox="0 0 30 31" fill="none" xmlns="http://www.w3.org/2000/svg">
<path d="M26.4498 3.24414C27.0289 3.24414 27.5 3.71528 27.5 4.29438V15.7441V27.1939C27.5 27.773 27.0289 28.2441 26.4498 28.2441H3.55024C2.97114 28.2441 2.5 27.773 2.5 27.1939V4.29438C2.5 3.71528 2.97114 3.24414 3.55024 3.24414H26.4498ZM26.4498 1.99414H3.55024C2.27985 1.99414 1.25 3.02399 1.25 4.29438V27.1939C1.25 28.4643 2.27985 29.4941 3.55024 29.4941H26.4498C27.7201 29.4941 28.75 28.4643 28.75 27.1939V4.29438C28.75 3.02399 27.7202 1.99414 26.4498 1.99414Z" fill="#FAFAFA"/>
<path d="M16.905 14.2142L24.3512 5.74463H22.5869L16.1184 13.0971L10.9558 5.74463H5L12.8086 16.8638L5 25.7446H6.76429L13.591 17.9784L19.0442 25.7446H25L16.905 14.2142ZM14.4877 16.9614L13.6954 15.8535L7.40053 7.04609H10.1108L15.1925 14.1566L15.9815 15.2645L22.5861 24.5066H19.8758L14.4877 16.9614Z" fill="#FAFAFA"/>
</svg>
