<svg width="101" height="26" viewBox="0 0 101 26" fill="none" xmlns="http://www.w3.org/2000/svg">
<g clip-path="url(#clip0_182_3643)">
<path d="M36.8002 6.30859L31.7012 19.7426H34.3078L35.3915 16.6017H40.6999L41.7659 19.7426H44.3915L39.4829 6.30859H36.8002ZM35.9816 14.6995C37.1618 11.4076 37.6377 10.0751 38.0743 8.72484C38.7024 10.6842 39.3496 12.5116 40.1047 14.6995H35.9816Z" fill="black"/>
<path d="M50.5272 10.0814C49.9532 10.0742 49.3857 10.2026 48.8707 10.4562C48.3558 10.7098 47.9081 11.0814 47.564 11.5408V6.30859H45.333V19.7426H47.4637V18.5053C48.1122 19.438 48.9866 19.933 50.281 19.933C52.6211 19.933 54.182 18.1055 54.182 15.004C54.182 11.9025 52.7543 10.0814 50.5272 10.0814ZM49.7289 18.0764C48.3203 18.0764 47.5018 16.9165 47.5018 14.9038C47.5018 13.0967 48.4536 11.9545 49.8051 11.9545C51.0741 11.9545 51.8597 13.1157 51.8597 15.018C51.8597 17.0218 51.0424 18.0675 49.7289 18.0675V18.0764Z" fill="black"/>
<path d="M58.8615 11.6961C59.7764 11.6961 60.4998 12.191 60.9757 13.0299L62.6343 11.9055C61.7955 10.5718 60.4046 10.002 58.8995 10.002C56.5556 10.002 55.2193 11.3738 55.2193 12.8598C55.2193 14.3078 56.1521 15.1657 57.6191 15.6225L58.6343 15.9461C60.0632 16.403 60.3869 16.6695 60.3869 17.2989C60.3869 17.87 59.8539 18.29 58.8818 18.29C57.8336 18.29 56.9579 17.7177 56.463 16.7456L54.7295 17.8878C55.529 19.0883 56.8437 20.0223 58.7904 20.0223C61.1533 20.0223 62.6191 18.7456 62.6191 16.9918C62.6191 15.469 61.6673 14.6872 59.9909 14.153L58.9757 13.8484C57.7561 13.4677 57.4528 13.2012 57.4528 12.6301C57.4528 12.0591 57.9046 11.6961 58.8615 11.6961Z" fill="black"/>
<path d="M67.1438 16.8068V12.0581H68.9788V10.2725H67.1438V7.1748H64.9267L64.8836 10.2725H63.4014V12.0581H64.8836V17.2484C64.8836 18.1266 65.0181 18.7954 65.4179 19.2535C65.8176 19.7116 66.4331 19.94 67.3633 19.94C67.9251 19.9384 68.4844 19.8663 69.0283 19.7256V17.9489C68.7347 18.0574 68.425 18.1154 68.112 18.1202C67.4217 18.1266 67.1438 17.7839 67.1438 16.8068Z" fill="black"/>
<path d="M72.3712 11.7305V10.2724H70.2393V19.7902H72.4728V15.3486C72.4728 14.3334 72.6403 13.6633 72.969 13.1684C73.3827 12.5745 73.974 12.2153 74.9994 12.2267C75.2763 12.2315 75.5513 12.2742 75.8167 12.3536V10.2724C75.5526 10.1875 75.2768 10.1447 74.9994 10.1455C73.6872 10.1493 72.9448 10.7039 72.3712 11.7305Z" fill="black"/>
<path d="M84.3697 17.1878V13.7614C84.3697 12.2741 84.1704 11.4937 83.5791 10.9404C82.9446 10.33 82.0347 10.0254 80.739 10.0254C78.3176 10.0254 76.7897 11.1675 76.6374 13.2284L78.7758 13.4188C78.89 12.3706 79.4039 11.7792 80.5676 11.7792C81.159 11.7792 81.6159 11.9061 81.8824 12.1789C82.1489 12.4518 82.2453 12.7894 82.2453 13.3211V13.8287C80.739 13.9251 78.909 14.1916 77.975 14.6104C76.8506 15.1256 76.2402 15.9264 76.2402 17.1485C76.2402 18.8452 77.4598 19.9327 79.1946 19.9327C80.5473 19.9327 81.5765 19.4569 82.3011 18.5799C82.508 19.5279 83.1755 19.8782 84.3684 19.8782C84.7129 19.885 85.0562 19.8336 85.3836 19.7259V18.2792C84.5258 18.434 84.376 17.9302 84.3697 17.1878ZM82.2453 15.7589C82.225 16.2919 82.1311 16.8261 81.8253 17.2652C81.4065 17.8934 80.7009 18.2563 79.843 18.2563C78.8519 18.2563 78.3938 17.7411 78.3938 17.0558C78.3938 16.5216 78.6222 16.1586 79.2136 15.8921C79.8811 15.5685 81.159 15.3769 82.2453 15.3198V15.7589Z" fill="black"/>
<path d="M90.4852 18.1482C89.0195 18.1482 88.1426 17.0441 88.1426 14.9502C88.1426 12.8373 89.1337 11.8665 90.4268 11.8665C91.3215 11.8665 92.0068 12.2852 92.2745 13.5416L94.2745 12.8563C93.8355 11.1621 92.541 10.001 90.4827 10.001C87.6451 10.001 85.8545 11.8855 85.8545 14.9883C85.8545 18.1101 87.607 20.0137 90.3685 20.0137C92.5258 20.0137 93.7783 18.8715 94.3316 17.2916L92.3316 16.6063C92.1045 17.6152 91.4954 18.1482 90.4852 18.1482Z" fill="black"/>
<path d="M98.5729 16.8068V12.0581H100.407V10.2725H98.5729V7.1748H96.3559L96.3165 10.2725H94.833V12.0581H96.3203V17.2484C96.3203 18.1266 96.4548 18.7954 96.8546 19.2535C97.2543 19.7116 97.8698 19.94 98.8 19.94C99.3588 19.9376 99.9151 19.8655 100.456 19.7256V17.9489C100.163 18.0573 99.8536 18.1153 99.5411 18.1202C98.8533 18.1266 98.5729 17.7839 98.5729 16.8068Z" fill="black"/>
<path d="M13.2939 0.309778C3.14159 0.283128 0.59717 2.81486 0.57052 12.9671C0.54387 23.1194 3.07433 25.6638 13.2266 25.6905C23.3789 25.7171 25.9246 23.1854 25.9512 13.0331C25.9779 2.88085 23.4462 0.336428 13.2939 0.309778ZM11.1784 19.9405C10.2176 19.9405 9.27838 19.6556 8.47951 19.1218C7.68062 18.5881 7.05798 17.8293 6.69031 16.9416C6.32263 16.054 6.22642 15.0773 6.41386 14.1349C6.60131 13.1926 7.06397 12.327 7.74335 11.6476C8.42274 10.9682 9.28833 10.5055 10.2307 10.3181C11.173 10.1307 12.1497 10.2268 13.0374 10.5945C13.9251 10.9622 14.6837 11.5849 15.2176 12.3837C15.7514 13.1826 16.0363 14.1218 16.0363 15.0826C16.0346 16.3705 15.5222 17.6052 14.6115 18.5158C13.7009 19.4265 12.4663 19.9388 11.1784 19.9405ZM20.002 19.7412H17.6226V8.63846H6.51849V6.25902H20.002V19.7412Z" fill="black"/>
<path d="M11.1786 12.6035C10.6884 12.6035 10.2093 12.7489 9.80168 13.0212C9.39411 13.2935 9.07644 13.6806 8.88886 14.1335C8.70127 14.5864 8.65219 15.0847 8.74782 15.5655C8.84345 16.0462 9.07949 16.4878 9.42611 16.8345C9.77273 17.1811 10.2143 17.4171 10.6951 17.5128C11.1759 17.6084 11.6742 17.5592 12.1271 17.3717C12.58 17.1841 12.967 16.8665 13.2394 16.4589C13.5117 16.0512 13.657 15.5722 13.657 15.082C13.6564 14.4248 13.395 13.7948 12.9304 13.3302C12.4657 12.8655 11.8357 12.6042 11.1786 12.6035Z" fill="black"/>
</g>
<defs>
<clipPath id="clip0_182_3643">
<rect width="100" height="25.6345" fill="white" transform="translate(0.543945 0.182617)"/>
</clipPath>
</defs>
</svg>
