<svg width="101" height="34" viewBox="0 0 101 34" fill="none" xmlns="http://www.w3.org/2000/svg">
<g clip-path="url(#clip0_182_3727)">
<path d="M97.6198 19.5737V19.1165H92.4605C89.7169 19.1165 87.9266 20.3825 87.9266 22.4563C87.9266 24.2854 89.4246 25.4465 91.7644 25.4465C95.4615 25.4465 97.6188 23.2203 97.6188 19.5737H97.6198ZM100.544 16.1262V27.5592H97.6198V24.4951C96.6304 26.5359 94.18 27.8359 91.3256 27.8359C87.4508 27.8359 84.9266 25.73 84.9266 22.4922C84.9266 19.1145 87.8159 16.964 92.279 16.964H96.447C97.2596 16.964 97.6198 16.5776 97.6198 16.0145C97.6198 13.5873 95.8266 11.9339 92.68 11.9339C89.9712 11.9339 87.8547 13.5533 87.7081 15.4873H84.9266C85.2567 12.066 88.6207 9.5436 92.7528 9.5436C97.546 9.54942 100.544 12.1844 100.544 16.1242V16.1262ZM78.1295 18.6932C78.1295 14.6834 75.7139 12.0834 72.0198 12.0834C68.3256 12.0834 65.8751 14.6844 65.8751 18.6932C65.8751 22.7029 68.312 25.3087 72.0198 25.3087C75.7275 25.3087 78.1295 22.6941 78.1295 18.6932ZM62.8771 18.6932C62.8771 13.5232 66.0217 9.55136 71.7625 9.55136C74.3625 9.55136 76.7751 10.8174 77.8722 12.7097V0.650391H80.7994V27.5582H77.8722V24.6388C76.7887 26.5737 74.3518 27.8368 71.7625 27.8368C66.0217 27.8368 62.8771 23.8621 62.8771 18.6922V18.6932ZM56.2508 19.5747V19.1174H51.1052C48.3615 19.1174 46.5693 20.3834 46.5693 22.4572C46.5693 24.2864 48.0693 25.4475 50.412 25.4475C54.0838 25.4475 56.2508 23.2213 56.2508 19.5747ZM59.178 16.1262V27.5592H56.2508V24.4951C55.2644 26.5359 52.8139 27.8359 49.9596 27.8359C46.0838 27.8359 43.5605 25.73 43.5605 22.4922C43.5605 19.1145 46.4499 16.964 50.9101 16.964H55.0809C55.8936 16.964 56.2508 16.5776 56.2508 16.0145C56.2508 13.5873 54.4605 11.9339 51.3139 11.9339C48.6052 11.9339 46.4848 13.5533 46.3392 15.4873H43.5605C43.8877 12.066 47.2538 9.5436 51.3868 9.5436C56.1771 9.54942 59.178 12.1844 59.178 16.1242V16.1262Z" fill="#171A1E"/>
<path d="M8.94297 27.9418C8.70897 27.9682 8.49039 28.0717 8.32161 28.236C8.15549 28.3979 8.05024 28.6122 8.02356 28.8427C8.02356 28.8573 8.02356 28.8719 8.02162 28.8874V28.8728C8.01915 28.8999 8.01786 28.9271 8.01773 28.9544V32.0165C8.0179 32.1514 7.99061 32.2849 7.93754 32.409C7.88446 32.5329 7.8067 32.6449 7.70899 32.7379C7.51028 32.9309 7.24334 33.0377 6.96628 33.035H1.59443C1.45456 33.0349 1.31605 33.0075 1.18666 32.9543C0.997768 32.8777 0.835436 32.7474 0.719673 32.5796C0.605863 32.4138 0.544628 32.2176 0.543945 32.0165V16.4389C0.546858 11.5146 2.86628 7.11939 6.50123 4.22522L6.50414 4.22231C6.57113 4.16988 6.63715 4.11745 6.70414 4.06697L6.71579 4.05726C6.84977 3.95435 6.98569 3.85338 7.12356 3.75629L7.15851 3.73007L7.34297 3.59998L7.36239 3.58639C7.43035 3.53881 7.49831 3.49318 7.56725 3.44658L7.60414 3.42231L7.77307 3.30872L7.82356 3.27668C7.99443 3.16697 8.16725 3.06017 8.342 2.95629L8.34977 2.95143C8.45268 2.8893 8.55851 2.82813 8.66628 2.76891L8.67501 2.76405C8.78181 2.70386 8.89055 2.64464 8.99928 2.58639L9.00317 2.58444C10.4596 1.81128 12.0239 1.26175 13.6439 0.954348H13.6488L13.8236 0.922309L13.8449 0.918426L14.008 0.8893L14.042 0.884445L14.1973 0.860173L14.242 0.853377L14.3876 0.832018L14.442 0.824251C14.4882 0.817406 14.5345 0.810934 14.5808 0.804834L14.641 0.797067L14.775 0.780562L14.843 0.772795L14.9692 0.758232L15.0449 0.750465L15.1643 0.738814L15.2459 0.731047L15.3624 0.721338L15.4498 0.714542L15.5624 0.704834L15.6546 0.699008L15.7624 0.692212L15.8614 0.686387L15.9643 0.681533L16.0702 0.676678L16.1672 0.672795L16.2838 0.668911L16.3711 0.666969L16.5041 0.663086H16.7808C25.7517 0.663086 33.0138 7.72716 33.0168 16.4418V32.0165C33.0171 32.1513 32.99 32.2848 32.937 32.4088C32.8841 32.5328 32.8066 32.6448 32.709 32.7379C32.5103 32.9309 32.2434 33.0377 31.9663 33.035H26.5944C26.3168 33.035 26.0498 32.9282 25.8527 32.7369C25.7557 32.6435 25.6784 32.5317 25.6253 32.408C25.5723 32.2842 25.5446 32.1511 25.5439 32.0165V28.9515C25.5439 28.6816 25.4323 28.4224 25.2352 28.2311C25.0361 28.0392 24.7701 27.9323 24.4935 27.933H16.7808L8.94297 27.9408V27.9418ZM25.5449 15.7884C25.5449 11.0864 21.6206 7.27473 16.7808 7.27473C16.0429 7.27495 15.3076 7.36526 14.5915 7.54367C13.2881 7.8688 12.0762 8.48708 11.0478 9.35143C10.1014 10.144 9.33844 11.1328 8.81191 12.2495C8.29053 13.3566 8.02064 14.5655 8.02162 15.7893C8.02162 20.4913 11.941 24.302 16.7789 24.302C21.6206 24.302 25.5439 20.4913 25.5439 15.7884H25.5449Z" fill="#171A1E"/>
</g>
<defs>
<clipPath id="clip0_182_3727">
<rect width="100" height="33.0097" fill="white" transform="translate(0.543945 0.495117)"/>
</clipPath>
</defs>
</svg>
