<svg width="101" height="18" viewBox="0 0 101 18" fill="none" xmlns="http://www.w3.org/2000/svg">
<g clip-path="url(#clip0_182_3642)">
<path d="M65.6907 2.88121C65.4403 2.63918 65.3164 2.34396 65.3164 1.99298C65.3164 1.64199 65.4415 1.34295 65.6907 1.09587C65.9396 0.847517 66.2424 0.724609 66.5948 0.724609C66.9487 0.724609 67.2476 0.848785 67.4902 1.09587C67.7341 1.34422 67.8555 1.64326 67.8555 1.99298C67.8555 2.34396 67.7302 2.63918 67.4812 2.88121C67.231 3.12322 66.9359 3.24359 66.5948 3.24359C66.241 3.24359 65.9396 3.12322 65.6907 2.88121Z" fill="#2A2F3D"/>
<path d="M7.23266 13.7243C7.12283 13.5304 7.03725 13.1503 6.97722 12.5826C6.34373 13.4886 5.33219 13.9422 3.94387 13.9422C2.90805 13.9422 2.08297 13.6939 1.46736 13.1985C0.851752 12.7018 0.543945 12.0137 0.543945 11.1305C0.543945 9.42629 1.74963 8.45316 4.16226 8.21242L5.58763 8.0857C6.06275 8.02488 6.40376 7.91338 6.61067 7.74992C6.81758 7.58647 6.92102 7.34192 6.92102 7.01627C6.92102 6.61713 6.79075 6.32445 6.52892 6.13692C6.2671 5.94938 5.82519 5.85561 5.20318 5.85561C4.53265 5.85561 4.05242 5.96712 3.75995 6.19139C3.46746 6.41441 3.29759 6.79834 3.24779 7.34192H0.982026C1.11613 5.21446 2.53 4.15137 5.22235 4.15137C7.8419 4.15137 9.15103 5.08775 9.15103 6.96179V11.9479C9.15103 12.7701 9.27874 13.362 9.53545 13.7243H7.23266ZM6.24538 11.7197C6.69624 11.3269 6.92102 10.7618 6.92102 10.0244V9.17287C6.70134 9.36548 6.34245 9.49345 5.84307 9.553L4.60034 9.69745C3.99112 9.76967 3.55559 9.91159 3.29377 10.1232C3.03193 10.3348 2.90039 10.6401 2.90039 11.0393C2.90039 11.4384 3.03705 11.7489 3.31165 11.9731C3.58624 12.1974 3.97834 12.3089 4.4905 12.3089C5.21085 12.3089 5.79454 12.1126 6.24538 11.7197Z" fill="#2A2F3D"/>
<path d="M20.5747 5.4745C21.3296 6.36907 21.7076 7.56014 21.7076 9.04645C21.7076 10.5214 21.3296 11.7061 20.5747 12.6007C19.8071 13.4952 18.7777 13.9426 17.4864 13.9426C16.2066 13.9426 15.2321 13.4648 14.5629 12.5107V17.2787H12.2588V4.36832H14.4696V5.71018C15.1517 4.67116 16.1568 4.15039 17.4851 4.15039C18.7777 4.15039 19.8071 4.5926 20.5747 5.4745ZM16.9372 12.0558C17.6921 12.0558 18.2897 11.7834 18.7278 11.2398C19.1544 10.7076 19.3678 9.95243 19.3678 8.97297C19.3678 8.01756 19.157 7.29025 18.7369 6.78848C18.3166 6.28671 17.7163 6.03583 16.9372 6.03583C16.1695 6.03583 15.5719 6.29558 15.1465 6.81509C14.72 7.3346 14.5067 8.07838 14.5067 9.04519C14.5067 10.0246 14.7264 10.7672 15.1645 11.2753C15.5783 11.7961 16.1695 12.0558 16.9372 12.0558Z" fill="#2A2F3D"/>
<path d="M32.4122 5.4745C33.167 6.36907 33.5451 7.56014 33.5451 9.04645C33.5451 10.5214 33.167 11.7061 32.4122 12.6007C31.6446 13.4952 30.6152 13.9426 29.3239 13.9426C28.0441 13.9426 27.0698 13.4648 26.4004 12.5107V17.2787H24.0977V4.36832H26.3085V5.71018C26.9905 4.67116 27.9956 4.15039 29.3239 4.15039C30.6152 4.15039 31.6446 4.5926 32.4122 5.4745ZM28.7748 12.0558C29.5296 12.0558 30.1274 11.7834 30.5654 11.2398C30.992 10.7076 31.2053 9.95243 31.2053 8.97297C31.2053 8.01756 30.9945 7.29025 30.5743 6.78848C30.1542 6.28671 29.5539 6.03583 28.7748 6.03583C28.0072 6.03583 27.4095 6.29558 26.9841 6.81509C26.5576 7.3346 26.3443 8.07838 26.3443 9.04519C26.3443 10.0246 26.5639 10.7672 27.0021 11.2753C27.4159 11.7961 28.0072 12.0558 28.7748 12.0558Z" fill="#2A2F3D"/>
<path d="M35.6289 10.7504H37.8769C37.9382 11.3307 38.1297 11.7413 38.4529 11.9833C38.776 12.2253 39.2843 12.3457 39.9792 12.3457C41.2219 12.3457 41.8439 11.9706 41.8439 11.2218C41.8439 10.8835 41.7097 10.6237 41.4415 10.4425C41.1732 10.2613 40.6917 10.1105 39.9983 9.98888L38.9202 9.80769C36.8614 9.46937 35.832 8.52666 35.832 6.97953C35.832 6.09764 36.173 5.40452 36.8552 4.90402C37.5371 4.40226 38.5001 4.15137 39.7428 4.15137C42.4352 4.15137 43.8248 5.2094 43.9103 7.32417H41.7353C41.7109 6.76793 41.5347 6.3726 41.2053 6.13691C40.8756 5.90123 40.3891 5.78339 39.7428 5.78339C38.647 5.78339 38.0979 6.14578 38.0979 6.87182C38.0979 7.18607 38.2191 7.43061 38.4631 7.60548C38.707 7.78034 39.108 7.91717 39.6687 8.01348L40.8565 8.19467C42.0021 8.39995 42.8337 8.72686 43.3509 9.17413C43.8682 9.62143 44.1275 10.2436 44.1275 11.0419C44.1275 11.9846 43.7622 12.7093 43.0304 13.2174C42.2998 13.7255 41.2704 13.9789 39.9421 13.9789C37.1885 13.9777 35.7503 12.902 35.6289 10.7504Z" fill="#2A2F3D"/>
<path d="M59.8892 5.05763C60.4679 5.66204 60.7577 6.48945 60.7577 7.54113V13.7233H58.4549V7.90353C58.4549 6.71878 57.9121 6.12705 56.8278 6.12705C56.2427 6.12705 55.7715 6.33612 55.4113 6.753C55.0524 7.16988 54.8724 7.77681 54.8724 8.57509V13.7246H52.5875V7.90353C52.5875 6.71878 52.0395 6.12705 50.9424 6.12705C50.3702 6.12705 49.904 6.33612 49.5439 6.753C49.1837 7.16988 49.0049 7.77681 49.0049 8.57509V13.7246H46.7021V4.36832H48.932V5.71018C49.577 4.67116 50.4736 4.15039 51.618 4.15039C53.0562 4.15039 54.0307 4.73072 54.5427 5.89137C55.2491 4.73072 56.2236 4.15039 57.4663 4.15039C58.5034 4.15039 59.3106 4.45322 59.8892 5.05763Z" fill="#2A2F3D"/>
<path d="M75.4538 6.10921V11.1674C75.4538 11.4703 75.5356 11.6819 75.7004 11.8023C75.8651 11.9227 76.1424 11.9835 76.5319 11.9835H78.2139V13.7245C77.7145 13.7726 76.4156 13.7967 76.1116 13.7967C75.0886 13.7967 74.3427 13.6066 73.8727 13.2252C73.4041 12.8439 73.169 12.2369 73.169 11.4031V6.10921H71.0322V4.36822H73.1703V1.24609H75.4551V4.36949H78.4017V6.10921H75.4538Z" fill="#2A2F3D"/>
<path d="M88.7004 5.02895C89.2917 5.61563 89.5868 6.44556 89.5868 7.5226V13.7238H87.284V7.90272C87.284 6.718 86.6926 6.12627 85.5113 6.12627C84.9263 6.12627 84.4295 6.33407 84.022 6.75221C83.6146 7.16908 83.4102 7.74561 83.4102 8.48306V13.7225H81.1074V1.24414H83.4102V5.61816C84.1293 4.63869 85.0859 4.1496 86.2788 4.1496C87.3019 4.1496 88.1091 4.44357 88.7004 5.02895Z" fill="#2A2F3D"/>
<path d="M100.438 15.0645H91.4463V16.8054H100.438V15.0645Z" fill="#FF6D2D"/>
<path d="M67.7651 11.9834V4.36816H62.9219V6.10916H65.4623V11.9834H62.9219V13.7244H70.3054V11.9834H67.7651Z" fill="#2A2F3D"/>
</g>
<defs>
<clipPath id="clip0_182_3642">
<rect width="100" height="16.5829" fill="white" transform="translate(0.543945 0.708984)"/>
</clipPath>
</defs>
</svg>
