<svg width="100" height="20" viewBox="0 0 100 20" fill="none" xmlns="http://www.w3.org/2000/svg">
<g clip-path="url(#clip0_182_3597)">
<path fill-rule="evenodd" clip-rule="evenodd" d="M1.71854 16.9422C-0.572877 14.6702 -0.572841 10.9866 1.71861 8.71465L7.94229 2.54384C9.87939 0.623223 12.8339 0.326186 15.0856 1.65274C15.7822 2.06305 15.7761 3.0043 15.2032 3.5723C14.6304 4.1403 13.6952 4.09142 12.9176 3.86592C11.9219 3.57717 10.8021 3.82212 10.0169 4.60075L3.79315 10.7715C2.64743 11.9076 2.64741 13.7493 3.79312 14.8853C4.93885 16.0214 6.79649 16.0214 7.94221 14.8853L20.3895 2.54392C22.681 0.271939 26.3961 0.271929 28.6876 2.5439L34.9114 8.71465C37.2028 10.9866 37.2028 14.6702 34.9114 16.9422C32.6199 19.2142 28.9047 19.2142 26.6132 16.9422L24.5387 14.8853L21.9455 17.4565C20.0084 19.3771 17.0539 19.6741 14.8021 18.3476C14.1056 17.9372 14.1117 16.996 14.6846 16.428C15.2574 15.86 16.1925 15.9089 16.9702 16.1343C17.9659 16.4231 19.0856 16.1782 19.8709 15.3995L22.5382 12.755C23.6431 11.6595 25.4343 11.6595 26.5392 12.755L28.6878 14.8853C29.8335 16.0213 31.6911 16.0213 32.8368 14.8853C33.9825 13.7493 33.9825 11.9076 32.8368 10.7715L26.6131 4.60082C25.4673 3.46484 23.6098 3.46484 22.464 4.60084L10.0168 16.9423C7.72527 19.2143 4.01001 19.2143 1.71854 16.9422Z" fill="black"/>
<path d="M60.0664 4.1377C58.6246 4.1377 57.5322 4.654 56.8113 5.68662C56.1778 4.654 55.1728 4.1377 53.8402 4.1377C52.4639 4.1377 51.4589 4.61098 50.8035 5.57905V4.43888H47.9854V15.1953H50.8035V9.15015C50.8035 7.57975 51.6118 6.71924 52.8571 6.71924C54.015 6.71924 54.6922 7.47218 54.6922 8.76298V15.1953H57.5104V9.15015C57.5104 7.57975 58.2532 6.71924 59.5421 6.71924C60.7 6.71924 61.3772 7.47218 61.3772 8.76298V15.1953H64.1954V8.56931C64.1954 5.88024 62.5788 4.1377 60.0664 4.1377Z" fill="black"/>
<path d="M74.6724 5.70813C73.8204 4.654 72.6407 4.1377 71.1114 4.1377C69.6477 4.1377 68.4025 4.69703 67.3539 5.79418C66.3271 6.89134 65.8027 8.22514 65.8027 9.8171C65.8027 11.409 66.3271 12.7644 67.3539 13.8615C68.4025 14.9586 69.6477 15.4965 71.1114 15.4965C72.6407 15.4965 73.8204 14.9802 74.6724 13.926V15.1953H77.4908V4.43888H74.6724V5.70813ZM69.473 12.0114C68.9049 11.4305 68.6209 10.6991 68.6209 9.8171C68.6209 8.93504 68.9049 8.20362 69.473 7.64429C70.041 7.06344 70.7619 6.78377 71.6357 6.78377C72.5096 6.78377 73.2305 7.06344 73.7985 7.64429C74.3884 8.20362 74.6724 8.93504 74.6724 9.8171C74.6724 10.6991 74.3884 11.4305 73.7985 12.0114C73.2305 12.5708 72.5096 12.8504 71.6357 12.8504C70.7619 12.8504 70.041 12.5708 69.473 12.0114Z" fill="black"/>
<path d="M87.889 6.28858V4.43848H79.6966V7.04153H84.0875L79.4775 13.3448V15.1949H88.1073V12.5918H83.2569L87.889 6.28858Z" fill="black"/>
<path d="M99.8906 10.9573C99.9562 10.5485 99.9997 10.1828 99.9997 9.8171C99.9997 8.20362 99.4761 6.86982 98.4272 5.77267C97.4005 4.67551 96.0677 4.1377 94.473 4.1377C92.7906 4.1377 91.3929 4.67551 90.3219 5.77267C89.2516 6.84831 88.7051 8.20362 88.7051 9.8171C88.7051 11.4521 89.2516 12.8074 90.344 13.883C91.4364 14.9586 92.8784 15.4965 94.6913 15.4965C96.7883 15.4965 98.3837 14.722 99.4539 13.1946L97.1822 11.9038C96.6356 12.6137 95.8058 12.9795 94.7348 12.9795C93.0532 12.9795 92.0265 12.3126 91.6547 10.9573H99.8906ZM91.6112 8.80595C91.9387 7.42916 92.9654 6.63318 94.473 6.63318C95.7616 6.63318 96.8539 7.34311 97.1822 8.80595H91.6112Z" fill="black"/>
</g>
<defs>
<clipPath id="clip0_182_3597">
<rect width="100" height="18.3206" fill="white" transform="translate(0 0.839844)"/>
</clipPath>
</defs>
</svg>
