<svg width="101" height="20" viewBox="0 0 101 20" fill="none" xmlns="http://www.w3.org/2000/svg">
<g clip-path="url(#clip0_182_3641)">
<path fill-rule="evenodd" clip-rule="evenodd" d="M99.4626 9.07834C100.049 9.69567 100.343 10.5317 100.343 11.5883V17.1577H98.1673V12.2217C98.1673 11.599 97.99 11.1077 97.6366 10.7457C97.282 10.385 96.7999 10.2043 96.1913 10.2043C95.4713 10.215 94.9013 10.4603 94.4806 10.9377C94.0599 11.4157 93.8499 12.027 93.8499 12.7717V17.1577H91.6906V4.78434H93.8499V9.93767C94.4586 8.76967 95.5273 8.17567 97.0546 8.15301C98.0733 8.15301 98.876 8.46167 99.4626 9.07834ZM86.896 10.071C86.1759 10.071 85.5926 10.315 85.144 10.8043C84.6959 11.2937 84.4713 11.9277 84.4713 12.7057C84.4713 13.5057 84.6959 14.1503 85.1446 14.6397C85.5926 15.129 86.1766 15.373 86.8966 15.373C87.9593 15.373 88.7566 15.023 89.2879 14.323L90.6326 15.4397C90.2353 16.0173 89.6906 16.4781 89.0553 16.7743C88.4019 17.0857 87.644 17.241 86.78 17.241C85.9053 17.241 85.1279 17.0523 84.4466 16.6743C83.7759 16.3065 83.2259 15.7534 82.8613 15.081C82.4846 14.3977 82.2959 13.6117 82.2959 12.7223C82.2959 11.8217 82.4873 11.027 82.8693 10.3377C83.2366 9.66288 83.7899 9.10741 84.4633 8.73701C85.1439 8.35901 85.9273 8.17034 86.8133 8.17034C87.6213 8.17034 88.3439 8.31167 88.9806 8.59501C89.6173 8.87834 90.1346 9.28168 90.534 9.80367L89.2213 11.0543C88.6233 10.399 87.8486 10.071 86.8966 10.071H86.896ZM80.922 8.23634V17.1577H78.7626V15.7403C78.4553 16.2171 78.0286 16.6052 77.5253 16.8663C77.0213 17.1277 76.4433 17.2577 75.7899 17.2577C74.9486 17.2577 74.2099 17.0657 73.5726 16.6823C72.9359 16.299 72.4406 15.7597 72.086 15.065C71.7326 14.3703 71.5553 13.5723 71.5553 12.6717C71.5553 11.783 71.7319 10.9963 72.0866 10.3123C72.4399 9.62901 72.9359 9.09768 73.5733 8.72034C74.2093 8.34234 74.9426 8.15301 75.7733 8.15301C76.4266 8.15301 77.0079 8.28367 77.5173 8.54501C78.0239 8.80421 78.4533 9.19234 78.7626 9.67034V8.23701H80.922V8.23634ZM77.9819 14.7817C78.4359 14.3423 78.696 13.7617 78.7626 13.039V12.4057C78.696 11.6823 78.4359 11.1017 77.9826 10.663C77.5279 10.223 76.9526 10.0043 76.2546 10.0043C75.5133 10.0043 74.9099 10.257 74.4446 10.763C73.9799 11.269 73.7413 11.9217 73.7313 12.7223C73.7413 13.5223 73.9799 14.1757 74.4446 14.6817C74.9099 15.187 75.5133 15.4403 76.2546 15.4403C76.9526 15.4403 77.5279 15.2203 77.9819 14.7817ZM69.3866 9.38701C70.1006 10.1983 70.4579 11.3377 70.4579 12.8057C70.4579 13.095 70.452 13.311 70.4413 13.4557H63.8813C64.0253 14.0897 64.3213 14.587 64.7699 14.9483C65.2179 15.3097 65.7693 15.4903 66.4226 15.4903C66.8699 15.4917 67.3133 15.4038 67.726 15.2317C68.1366 15.063 68.5073 14.8103 68.8139 14.4897L69.976 15.707C69.5273 16.2003 68.9739 16.5874 68.3566 16.8403C67.7199 17.1077 67.0146 17.241 66.2393 17.241C65.3319 17.241 64.5319 17.0523 63.8399 16.6743C63.1621 16.3105 62.6051 15.7567 62.2373 15.081C61.8606 14.3977 61.6726 13.6117 61.6726 12.7223C61.6726 11.833 61.8633 11.0437 62.2459 10.3543C62.6162 9.67661 63.1719 9.11841 63.8479 8.74501C64.5346 8.36101 65.3146 8.16967 66.1893 8.16967C67.6073 8.16967 68.6726 8.57634 69.3866 9.38701ZM68.4819 12.005C68.4593 11.349 68.2433 10.827 67.8339 10.4377C67.4246 10.0483 66.882 9.85367 66.2066 9.85367C65.5753 9.85367 65.0466 10.0457 64.6199 10.4297C64.1939 10.813 63.9313 11.3377 63.8319 12.005H68.4819ZM59.3266 8.62834C59.8413 8.32234 60.4419 8.16434 61.1286 8.15301V10.2543C60.2086 10.1983 59.4759 10.4123 58.9279 10.8963C58.3799 11.3797 58.1059 12.033 58.1059 12.855V17.1577H55.9473V8.23634H58.1059V9.95367C58.4046 9.37634 58.8119 8.93367 59.3259 8.62834H59.3266ZM54.3299 16.6063C53.6213 17.0397 52.8793 17.257 52.1046 17.257C51.3406 17.257 50.7146 17.0317 50.2279 16.5817C49.7406 16.131 49.4973 15.467 49.4973 14.589V6.15167L51.6393 5.89567V8.60301H54.1799V10.1877H51.6399V14.2063C51.6399 14.6177 51.7166 14.9097 51.8719 15.0817C52.0273 15.2543 52.2586 15.3403 52.5693 15.3403C52.9013 15.3403 53.3226 15.2177 53.8313 14.973L54.3299 16.607V16.6063ZM45.4973 8.23634H47.6393V13.237C47.6393 16.1557 45.6099 17.241 43.5513 17.241C41.4919 17.241 39.4633 16.1557 39.4633 13.237V8.23701H41.6059V13.3143C41.6059 14.433 42.4373 15.3403 43.5513 15.3403C44.6653 15.3403 45.4966 14.4337 45.4966 13.3143V8.23634H45.4973ZM35.0246 6.11834C35.9497 6.6205 36.7215 7.36394 37.2579 8.26967C37.8013 9.18101 38.0719 10.193 38.0719 11.305C38.0719 12.4163 37.8013 13.431 37.2586 14.3477C36.7219 15.2595 35.9507 16.0109 35.0253 16.5237C34.0786 17.057 33.0293 17.3237 31.8779 17.3237C30.7259 17.3237 29.6779 17.057 28.7313 16.5237C27.8055 16.0111 27.0341 15.2596 26.4973 14.3477C25.9546 13.431 25.6833 12.4163 25.6833 11.305C25.6833 10.193 25.9546 9.18101 26.4966 8.26967C27.0331 7.36381 27.8052 6.62035 28.7306 6.11834C29.6773 5.59634 30.7259 5.33501 31.8773 5.33501C33.0293 5.33501 34.0779 5.59634 35.0246 6.11834ZM29.9346 7.86167C29.3345 8.20294 28.8359 8.69761 28.4899 9.29501C28.1353 9.90167 27.9586 10.571 27.9586 11.305C27.9586 12.0383 28.1386 12.7117 28.4986 13.3223C28.847 13.9226 29.3449 14.4224 29.9439 14.773C30.5473 15.129 31.2026 15.3063 31.9119 15.3063C32.5961 15.31 33.2682 15.1255 33.8546 14.773C34.4472 14.4227 34.937 13.9223 35.2746 13.3223C35.6243 12.7079 35.8048 12.0119 35.7979 11.305C35.7979 10.5717 35.6233 9.90168 35.2746 9.29568C34.9363 8.70054 34.4464 8.20574 33.8546 7.86167C33.2665 7.51394 32.5951 7.33214 31.9119 7.33567C31.218 7.33194 30.5356 7.51354 29.9353 7.86167H29.9346ZM9.41995 0.333008C12.4766 0.333008 17.0953 1.27434 19.2453 3.43301C19.7899 3.98034 20.5026 5.05234 20.5026 6.62234C20.5026 9.41367 18.2626 13.6963 15.7893 16.1803C14.5106 17.4643 12.4766 19.1423 9.74061 19.1423C7.06595 19.1423 5.02328 17.3183 4.43195 16.7243C2.16661 14.4497 0.543945 10.997 0.543945 7.77767C0.543945 5.74634 1.12061 3.96967 2.59195 2.49301C3.95461 1.12501 6.30261 0.333008 9.41995 0.333008ZM13.2033 11.465C14.2353 10.4283 14.5133 9.15167 14.5133 8.44901C14.5133 7.93967 14.3799 7.19234 13.7453 6.55567C12.7719 5.57834 11.6939 5.30234 10.5213 5.30234C9.03594 5.30234 8.03795 5.77367 7.37328 6.44167C6.85195 6.96501 6.40128 7.76967 6.40128 8.91301C6.40128 10.0557 7.00795 11.1597 7.66928 11.823C8.27995 12.4363 9.23995 12.8903 10.2066 12.8903C11.1733 12.8903 12.1713 12.5017 13.2033 11.465Z" fill="#5952FF"/>
</g>
<defs>
<clipPath id="clip0_182_3641">
<rect width="100" height="19.3333" fill="white" transform="translate(0.543945 0.333008)"/>
</clipPath>
</defs>
</svg>
