<svg width="101" height="18" viewBox="0 0 101 18" fill="none" xmlns="http://www.w3.org/2000/svg">
<g clip-path="url(#clip0_182_3636)">
<path fill-rule="evenodd" clip-rule="evenodd" d="M71.0885 15.076H73.1714C73.2359 15.076 73.2878 15.025 73.2878 14.9621V0.595405C73.2878 0.526279 73.2315 0.47168 73.1613 0.47168H71.0986C71.029 0.47168 70.9727 0.526279 70.9727 0.595405V14.9621C70.9727 15.025 71.0246 15.076 71.0885 15.076Z" fill="#161637"/>
<path fill-rule="evenodd" clip-rule="evenodd" d="M30.544 13.1284C28.7695 13.1284 27.3262 11.6844 27.3262 9.91033C27.3262 8.13741 28.7695 6.69292 30.544 6.69292C32.3177 6.69292 33.761 8.13741 33.761 9.91033C33.761 11.6844 32.3177 13.1284 30.544 13.1284ZM30.544 4.38965C27.4997 4.38965 25.0225 6.86621 25.0225 9.91033C25.0225 12.9549 27.4997 15.432 30.544 15.432C33.588 15.432 36.0647 12.9549 36.0647 9.91033C36.0647 6.86621 33.588 4.38965 30.544 4.38965Z" fill="#161637"/>
<path fill-rule="evenodd" clip-rule="evenodd" d="M80.056 13.1284C78.2826 13.1284 76.839 11.6844 76.839 9.91033C76.839 8.13741 78.2826 6.69292 80.056 6.69292C81.8295 6.69292 83.2731 8.13741 83.2731 9.91033C83.2731 11.6844 81.8295 13.1284 80.056 13.1284ZM80.056 4.38965C77.0111 4.38965 74.5352 6.86621 74.5352 9.91033C74.5352 12.9549 77.0111 15.432 80.056 15.432C83.101 15.432 85.5776 12.9549 85.5776 9.91033C85.5776 6.86621 83.101 4.38965 80.056 4.38965Z" fill="#161637"/>
<path fill-rule="evenodd" clip-rule="evenodd" d="M44.0515 4.64317L41.1374 11.8795L38.2212 4.64317C38.2025 4.59807 38.1579 4.56738 38.1084 4.56738H35.831C35.7444 4.56738 35.6854 4.65588 35.7182 4.73622L39.9862 15.1785C40.0051 15.2233 40.0498 15.2535 40.0993 15.2535H42.1832C42.2335 15.2535 42.2777 15.2233 42.2961 15.1785L46.5639 4.73622C46.5969 4.65588 46.5379 4.56738 46.4508 4.56738H44.1646C44.1151 4.56738 44.0701 4.59784 44.0515 4.64317Z" fill="#161637"/>
<path fill-rule="evenodd" clip-rule="evenodd" d="M60.6501 5.17224V4.66437C60.6501 4.59829 60.5969 4.54469 60.5314 4.54469H58.4464C58.3805 4.54469 58.3281 4.59829 58.3281 4.66437V15.1257C58.3281 15.1971 58.3844 15.2539 58.4547 15.2539H60.5233C60.5934 15.2539 60.6501 15.1971 60.6501 15.1257V9.36014C60.6501 8.41843 60.8794 7.73634 61.3327 7.32919C61.8038 6.90735 62.4128 6.69366 63.1415 6.69366H63.5477C63.6157 6.69366 63.6712 6.63793 63.6712 6.56894V4.51488C63.6712 4.44565 63.6157 4.38965 63.5477 4.38965H63.1415C62.1368 4.38965 61.3025 4.65308 60.6501 5.17224Z" fill="#161637"/>
<path fill-rule="evenodd" clip-rule="evenodd" d="M65.9728 1.45447C65.1544 2.19596 64.7393 3.27559 64.7393 4.6647V14.9553C64.7393 15.022 64.795 15.076 64.8633 15.076H66.9785C67.0475 15.076 67.1025 15.022 67.1025 14.9553V6.7882H69.781C69.8487 6.7882 69.9044 6.73392 69.9044 6.66807V4.63771C69.9044 4.5716 69.8487 4.51755 69.781 4.51755H67.1057C67.1266 3.8467 67.2956 3.37087 67.6089 3.10308C67.9506 2.81209 68.5393 2.69336 69.3203 2.75638L69.7709 2.79313C69.8424 2.79953 69.9044 2.74384 69.9044 2.67393V0.634569C69.9044 0.571753 69.8538 0.518901 69.7899 0.514636L69.4025 0.489043C67.9475 0.389771 66.788 0.716779 65.9728 1.45447Z" fill="#161637"/>
<path fill-rule="evenodd" clip-rule="evenodd" d="M97.9573 4.65298L96.0054 11.2618L93.9269 4.65011C93.9124 4.60047 93.8662 4.56738 93.8149 4.56738H91.944C91.8927 4.56738 91.8472 4.60047 91.8313 4.65011L89.7535 11.2618L87.8016 4.65298C87.7864 4.60168 87.7408 4.56738 87.6883 4.56738H85.5174C85.4377 4.56738 85.3813 4.64364 85.4048 4.72134L88.6098 15.1698C88.6256 15.2199 88.6706 15.2535 88.7231 15.2535H90.7092C90.7605 15.2535 90.806 15.2204 90.8212 15.1709L92.8794 8.71726L94.937 15.1709C94.9522 15.2204 94.9978 15.2535 95.0491 15.2535H97.0364C97.0877 15.2535 97.1339 15.2199 97.1491 15.1698L100.354 4.72134C100.379 4.64364 100.321 4.56738 100.241 4.56738H98.07C98.0181 4.56738 97.9718 4.60168 97.9573 4.65298Z" fill="#161637"/>
<path fill-rule="evenodd" clip-rule="evenodd" d="M49.5092 7.3914C50.0988 6.87305 50.8495 6.61107 51.7424 6.61107C52.5057 6.61107 53.1821 6.85836 53.7529 7.34602C54.1831 7.71298 54.4865 8.20495 54.658 8.81159H48.5822C48.7603 8.25222 49.0705 7.7752 49.5092 7.3914ZM54.6465 11.8112C54.5927 11.7791 54.5229 11.7917 54.4833 11.8404C54.3175 12.0494 53.8746 12.5787 53.5219 12.7763C53.0734 13.0276 52.5239 13.1559 51.889 13.1559C50.9943 13.1559 50.2374 12.9096 49.6388 12.4264C49.2013 12.0739 48.8934 11.6172 48.72 11.0682H56.8744C56.9407 11.0682 56.9953 11.0192 57.0021 10.9544L57.04 10.5922C57.0671 10.324 57.081 10.1074 57.081 9.94912C57.081 8.46457 56.5932 7.15862 55.631 6.06736C54.6508 4.95379 53.3524 4.38965 51.7738 4.38965C50.1568 4.38965 48.8104 4.92433 47.7727 5.97875C46.7404 7.02887 46.2168 8.35197 46.2168 9.91045C46.2168 11.4969 46.7483 12.8281 47.7976 13.867C48.8464 14.9051 50.2175 15.432 51.87 15.432C52.892 15.432 53.8198 15.211 54.6276 14.7768C55.3248 14.401 55.9034 13.9041 56.3515 13.2946C56.3914 13.2392 56.4569 13.1418 56.5078 13.0663C56.5464 13.007 56.5286 12.9281 56.4677 12.8925L54.6465 11.8112Z" fill="#161637"/>
<path fill-rule="evenodd" clip-rule="evenodd" d="M19.8575 7.88888C19.8561 7.82451 19.8041 7.77344 19.7395 7.77344H17.5476C17.5476 11.8085 14.2772 15.0784 10.2427 15.0784C6.20652 15.0784 2.93586 11.8085 2.93586 7.77344H0.742281C0.677687 7.77344 0.625685 7.82451 0.624015 7.88837L0.623047 7.89217C0.623047 7.89363 0.624015 7.89458 0.624015 7.89648C0.690045 13.1434 4.97911 17.3909 10.2427 17.3909C15.5046 17.3909 19.7913 13.1424 19.8575 7.89648C19.8575 7.89458 19.858 7.89312 19.858 7.89217C19.858 7.89217 19.8575 7.89027 19.8575 7.88888Z" fill="#FB5D2E"/>
<path fill-rule="evenodd" clip-rule="evenodd" d="M10.2415 0.47168C6.20767 0.47168 2.93848 3.74104 2.93848 7.77383H17.5428C17.5428 3.74104 14.2738 0.47168 10.2415 0.47168Z" fill="#16B4F2"/>
<path fill-rule="evenodd" clip-rule="evenodd" d="M17.5428 7.77344C17.5428 11.8072 14.2738 15.0756 10.2414 15.0756C6.20752 15.0756 2.93848 11.8072 2.93848 7.77344H17.5428Z" fill="#2C2C96"/>
</g>
<defs>
<clipPath id="clip0_182_3636">
<rect width="100" height="17.0886" fill="white" transform="translate(0.543945 0.456055)"/>
</clipPath>
</defs>
</svg>
