<svg width="109" height="30" viewBox="0 0 109 30" fill="none" xmlns="http://www.w3.org/2000/svg">
<g clip-path="url(#clip0_182_3718)">
<path fill-rule="evenodd" clip-rule="evenodd" d="M45.9852 29.5V22.1108C46.1372 22.2336 46.2788 22.3523 46.4144 22.4659C46.7078 22.7118 46.9733 22.9344 47.2572 23.1253C50.2651 25.1481 54.8585 24.4152 57.4185 21.4824C59.545 19.0452 60.1179 16.1653 59.578 13.0492C58.8496 8.87812 56.1452 5.66249 51.5041 5.50631C49.331 5.43376 47.3845 5.97483 45.9239 7.72959C45.8993 7.75973 45.8612 7.7787 45.8001 7.80907C45.7639 7.82704 45.7198 7.849 45.6656 7.87961V6.11624H40.7686V29.5H45.9852ZM50.1745 19.3305C47.7787 19.3317 45.7697 17.299 45.7525 14.8556H45.7538C45.8468 12.8562 47.2094 10.4312 50.1207 10.4225C51.2946 10.4176 52.4214 10.886 53.2483 11.7229C54.0753 12.5598 54.5332 13.695 54.5194 14.8741C54.4937 17.3494 52.5704 19.3292 50.1745 19.3305Z" fill="black"/>
<path fill-rule="evenodd" clip-rule="evenodd" d="M74.9674 29.5V22.1964C75.1886 22.3486 75.3998 22.5046 75.607 22.6577C76.0435 22.9802 76.4624 23.2896 76.9201 23.5228C80.2202 25.2016 84.7012 23.9907 86.9429 20.8283C88.8171 18.1841 89.1638 15.2453 88.3675 12.175C87.5321 8.95117 85.6812 6.55757 82.3026 5.78877C79.4999 5.15138 76.8501 5.45841 74.8167 7.83727C74.8099 7.84553 74.7854 7.8391 74.7444 7.82836C74.7183 7.82153 74.6855 7.81297 74.6465 7.80534V6.14247H69.7686V29.5H74.9674ZM79.1544 19.3423C76.7498 19.3337 74.7457 17.3036 74.7371 14.867L74.7359 14.8658C74.8351 12.8529 76.2096 10.4457 79.1152 10.4457C80.2905 10.4404 81.4184 10.9094 82.2448 11.7471C83.0712 12.5849 83.5265 13.7208 83.5079 14.8989C83.4712 17.3773 81.5591 19.3509 79.1544 19.3423Z" fill="black"/>
<path fill-rule="evenodd" clip-rule="evenodd" d="M94.8408 16.0733H107.615C108.361 12.3939 106.408 7.22905 101.226 5.83452C96.3134 4.51674 91.4888 7.20425 90.1357 11.9275C88.7487 16.7664 91.4067 21.7199 96.1614 23.1144C101.15 24.5786 105.567 21.6785 107.108 17.6957C107.104 17.6917 107.099 17.6866 107.095 17.6815C107.086 17.6714 107.078 17.6614 107.07 17.6614C106.693 17.6606 106.316 17.6586 105.939 17.6565C104.786 17.6504 103.635 17.6442 102.483 17.6709C102.137 17.6839 101.807 17.8142 101.549 18.0393C100.466 19.0831 99.1851 19.3901 97.7269 19.154C96.107 18.8883 94.8505 17.5564 94.8408 16.0733ZM98.1929 9.81855C100.482 9.65442 102.22 10.7573 102.582 12.669H94.9688C95.0074 11.3737 96.4257 9.9449 98.1929 9.81855Z" fill="black"/>
<path d="M0.77224 29.4997V29.034C0.77224 23.2048 0.763947 17.3756 0.77224 11.5417C0.778163 8.52783 2.78617 6.04464 5.72413 5.59669C7.01541 5.40049 8.36 5.5636 9.76856 5.5636V6.05409C9.76856 11.7848 9.76856 17.5155 9.76856 23.2462C9.76856 26.9101 7.18363 29.4808 3.51237 29.4938C2.63216 29.5021 1.74485 29.4997 0.77224 29.4997Z" fill="black"/>
<path d="M12.7686 19.4703V0.500282C14.4373 0.587375 16.1 0.291259 17.7129 0.873536C20.0882 1.71411 21.7033 4.02881 21.7481 6.65649C21.7802 8.7716 21.7671 10.8867 21.7588 13.0018C21.7434 16.6099 19.4421 19.2227 16.0169 19.4716C14.9559 19.5363 13.8878 19.4703 12.7686 19.4703Z" fill="black"/>
<path d="M66.7686 23.5H61.7686V6.5H66.7686V23.5Z" fill="black"/>
<path d="M66.7686 0.5V4.5H61.7686V0.5H66.7686Z" fill="black"/>
</g>
<defs>
<clipPath id="clip0_182_3718">
<rect width="108" height="29" fill="white" transform="translate(0.543945 0.5)"/>
</clipPath>
</defs>
</svg>
