<svg width="101" height="26" viewBox="0 0 101 26" fill="none" xmlns="http://www.w3.org/2000/svg">
<g clip-path="url(#clip0_182_3640)">
<path d="M32.0707 20.2817L33.2911 17.4292C34.6274 18.4188 36.3703 18.9426 38.1136 18.9426C39.3919 18.9426 40.2053 18.448 40.2053 17.6913C40.1761 15.5955 32.5065 17.2255 32.4482 11.9563C32.419 9.27842 34.8015 7.21176 38.1719 7.21176C40.1761 7.21176 42.1811 7.70676 43.6044 8.84217L42.464 11.7555C41.1544 10.9134 39.5369 10.3263 37.9974 10.3263C36.9515 10.3263 36.254 10.8209 36.254 11.4617C36.2832 13.5284 44.0115 12.393 44.0986 17.4292C44.0986 20.1655 41.774 22.0867 38.4619 22.0867C36.0219 22.0867 33.7849 21.5047 32.0703 20.2817H32.0707ZM80.6657 16.3963C80.3576 16.9437 79.9095 17.3992 79.3673 17.7163C78.8251 18.0333 78.2084 18.2004 77.5803 18.2005C75.6228 18.2005 74.0361 16.6105 74.0361 14.6492C74.0361 12.688 75.6228 11.098 77.5803 11.098C78.2084 11.098 78.8251 11.2652 79.3673 11.5822C79.9095 11.8992 80.3576 12.3548 80.6657 12.9022L84.0586 11.0188C82.7878 8.74759 80.3636 7.21176 77.5803 7.21176C73.4807 7.21176 70.1574 10.5413 70.1574 14.6492C70.1574 18.7567 73.4807 22.0867 77.5803 22.0867C80.3636 22.0867 82.7878 20.5509 84.0586 18.2797L80.6657 16.3963ZM46.3003 21.7955H50.5419V1.02051H46.3007L46.3003 21.7955ZM86.2007 1.02051V21.7955H90.4424V15.5713L95.4686 21.7955H100.89L94.4986 14.4013L100.425 7.50176H95.2361L90.4424 13.238V1.02051H86.2007ZM63.6099 7.50259V9.19134C62.9128 8.02676 61.1986 7.21176 59.3974 7.21176C55.6786 7.21176 52.7444 10.5013 52.7444 14.6347C52.7444 18.768 55.6786 22.0867 59.3974 22.0867C61.1986 22.0867 62.9128 21.2717 63.6099 20.1072V21.7955H67.8515V7.50259H63.6099ZM63.6099 16.4251C62.9999 17.4438 61.7215 18.2001 60.2982 18.2001C58.3403 18.2001 56.7536 16.6105 56.7536 14.6492C56.7536 12.688 58.3403 11.098 60.2982 11.098C61.7215 11.098 62.9999 11.8838 63.6099 12.9313V16.4251Z" fill="black"/>
<path d="M9.66978 0.561523C8.2952 0.561523 7.18103 1.67819 7.18103 3.05528C7.18071 3.38243 7.24482 3.70645 7.36971 4.00883C7.49461 4.31121 7.67783 4.58602 7.90894 4.81759C8.14004 5.04916 8.41448 5.23294 8.71661 5.35844C9.01873 5.48394 9.34262 5.5487 9.66978 5.54903H12.1589V3.05528C12.1595 2.39452 11.8975 1.7606 11.4307 1.29294C10.9639 0.825279 10.3305 0.562186 9.66978 0.561523ZM9.66978 7.21153H3.0327C1.65812 7.21153 0.543945 8.32819 0.543945 9.70569C0.543945 11.0828 1.65812 12.1995 3.0327 12.1995H9.6702C11.0443 12.1995 12.1589 11.0828 12.1589 9.70569C12.1589 8.32819 11.0443 7.21153 9.66978 7.21153Z" fill="#2FBDEE"/>
<path d="M25.4334 9.70569C25.4334 8.32819 24.3188 7.21153 22.9442 7.21153C21.5696 7.21153 20.4555 8.32819 20.4555 9.70569V12.1995H22.9442C23.605 12.1988 24.2384 11.9357 24.7052 11.4681C25.172 11.0004 25.4339 10.3664 25.4334 9.70569ZM18.7963 9.70569V3.05528C18.7968 2.39452 18.5349 1.7606 18.0681 1.29294C17.6013 0.825279 16.9679 0.562186 16.3071 0.561523C14.9325 0.561523 13.8184 1.67819 13.8184 3.05528V9.70528C13.8184 11.0832 14.9325 12.1999 16.3071 12.1999C16.9679 12.1992 17.6013 11.9361 18.0681 11.4685C18.5349 11.0008 18.7968 10.3669 18.7963 9.70611" fill="#29AD72"/>
<path d="M16.3071 25.5002C16.9679 25.4996 17.6013 25.2365 18.0681 24.7688C18.5349 24.3012 18.7968 23.6672 18.7963 23.0065C18.7968 22.3457 18.5349 21.7118 18.0681 21.2441C17.6013 20.7765 16.9679 20.5134 16.3071 20.5127H13.8184V23.0065C13.8184 24.3836 14.9325 25.5002 16.3071 25.5002ZM16.3071 18.8502H22.9446C24.3188 18.8502 25.4334 17.7336 25.4334 16.3561C25.4339 15.6953 25.172 15.0614 24.7052 14.5937C24.2384 14.1261 23.605 13.863 22.9442 13.8623H16.3071C14.9325 13.8623 13.8184 14.979 13.8184 16.3561C13.818 16.6832 13.8822 17.0072 14.0071 17.3096C14.1319 17.612 14.3152 17.8868 14.5463 18.1184C14.7774 18.3499 15.0518 18.5337 15.354 18.6592C15.6561 18.7847 15.98 18.8495 16.3071 18.8498" fill="#E9A929"/>
<path d="M0.543947 16.3561C0.543618 16.6832 0.607731 17.0072 0.732624 17.3096C0.857518 17.612 1.04075 17.8868 1.27185 18.1184C1.50295 18.3499 1.7774 18.5337 2.07953 18.6592C2.38166 18.7847 2.70555 18.8495 3.0327 18.8498C3.69346 18.8491 4.3269 18.586 4.7937 18.1184C5.26049 17.6507 5.52242 17.0168 5.52187 16.3561V13.8623H3.0327C1.65812 13.8623 0.543947 14.979 0.543947 16.3561ZM7.18103 16.3561V23.0061C7.18103 24.3836 8.2952 25.5002 9.66978 25.5002C10.3305 25.4996 10.9639 25.2365 11.4307 24.7688C11.8975 24.3012 12.1595 23.6672 12.1589 23.0065V16.3561C12.1592 16.0289 12.0951 15.7048 11.9702 15.4024C11.8453 15.1 11.662 14.8252 11.4309 14.5936C11.1997 14.362 10.9252 14.1783 10.623 14.0528C10.3209 13.9273 9.99697 13.8626 9.66978 13.8623C8.2952 13.8623 7.18103 14.979 7.18103 16.3561Z" fill="#DC1C50"/>
</g>
<defs>
<clipPath id="clip0_182_3640">
<rect width="100" height="25" fill="white" transform="translate(0.543945 0.5)"/>
</clipPath>
</defs>
</svg>
