<svg width="132" height="24" viewBox="0 0 132 24" fill="none" xmlns="http://www.w3.org/2000/svg">
<g clip-path="url(#clip0_182_3731)">
<path d="M32.9438 6.92H35.9958L39.1218 14.94L42.2478 6.92H45.3008L40.1468 19.206H38.0958L32.9428 6.92H32.9438ZM59.6918 19.4C57.8838 19.4 56.4918 18.832 55.5158 17.694C54.5538 16.54 54.0738 14.997 54.0738 13.062C54.0738 11.129 54.5538 9.592 55.5148 8.455C56.4918 7.302 57.8848 6.725 59.6908 6.725C60.2908 6.724 60.8828 6.857 61.4248 7.115C61.9788 7.375 62.3948 7.683 62.6708 8.041V1.947H65.6998V19.206H62.6708V17.938C62.4758 18.295 62.1008 18.628 61.5478 18.938C61.0098 19.246 60.3918 19.4 59.6918 19.4ZM60.1068 16.816C60.9368 16.816 61.6128 16.491 62.1338 15.842C62.6708 15.175 62.9398 14.25 62.9398 13.062C62.9398 11.876 62.6708 10.958 62.1338 10.308C61.6128 9.642 60.9368 9.308 60.1068 9.308C59.2768 9.308 58.5928 9.642 58.0548 10.308C57.5178 10.958 57.2488 11.876 57.2488 13.062C57.2488 14.232 57.5188 15.15 58.0548 15.817C58.5928 16.483 59.2768 16.816 60.1068 16.816ZM73.9098 19.4C72.5738 19.4 71.4598 19.092 70.5638 18.474C69.7086 17.8693 69.0333 17.044 68.6098 16.086C68.2064 15.1289 67.999 14.1006 67.9998 13.062C67.9998 12.022 68.2028 11.022 68.6098 10.064C69.024 9.10005 69.7011 8.27215 70.5638 7.675C71.4598 7.042 72.5738 6.725 73.9098 6.725C75.1958 6.725 76.2698 7.034 77.1338 7.651C77.9709 8.2208 78.6308 9.01475 79.0378 9.942C79.4388 10.84 79.6478 11.812 79.6498 12.794V14.038H70.9798C71.0108 14.51 71.1498 14.956 71.3938 15.378C71.6538 15.801 72.0128 16.15 72.4688 16.426C72.9408 16.686 73.4788 16.816 74.0808 16.816C75.3178 16.816 76.3188 16.231 77.0848 15.062L79.5018 16.329C78.3298 18.377 76.4658 19.401 73.9098 19.401V19.4ZM76.7918 11.746C76.6288 10.998 76.3118 10.39 75.8398 9.918C75.3668 9.446 74.7238 9.211 73.9098 9.211C73.1278 9.211 72.4778 9.463 71.9558 9.966C71.457 10.4428 71.1235 11.0664 71.0038 11.746H76.7918ZM87.7358 19.4C86.5158 19.4 85.4488 19.116 84.5358 18.547C83.6342 17.9888 82.9003 17.1972 82.4118 16.256C81.9228 15.281 81.6788 14.216 81.6788 13.062C81.6788 11.909 81.9228 10.852 82.4118 9.894C82.895 8.94222 83.63 8.14118 84.5368 7.578C85.4488 7.01 86.5148 6.725 87.7358 6.725C88.9578 6.725 90.0238 7.009 90.9358 7.578C91.8391 8.13779 92.5668 8.94034 93.0358 9.894C93.5408 10.852 93.7938 11.909 93.7938 13.062C93.804 14.1724 93.5438 15.2686 93.0358 16.256C92.5613 17.1993 91.8344 17.9924 90.9358 18.547C90.0238 19.116 88.9578 19.4 87.7358 19.4ZM87.7358 16.816C88.7298 16.816 89.4958 16.451 90.0318 15.72C90.5858 14.988 90.8618 14.102 90.8618 13.062C90.8618 12.022 90.5858 11.137 90.0318 10.406C89.4948 9.674 88.7298 9.309 87.7358 9.309C86.7428 9.309 85.9698 9.674 85.4158 10.405C84.8778 11.137 84.6098 12.022 84.6098 13.062C84.6098 14.102 84.8778 14.988 85.4158 15.72C85.9698 16.451 86.7428 16.816 87.7358 16.816ZM99.8038 19.4C98.7138 19.4 97.8178 19.075 97.1178 18.426C96.4178 17.776 96.0678 16.858 96.0678 15.67C96.0678 14.874 96.2878 14.176 96.7278 13.574C97.1658 12.957 97.7858 12.486 98.5828 12.161C99.3808 11.819 100.293 11.649 101.318 11.649H103.37V11.113C103.37 10.463 103.166 9.975 102.759 9.65C102.353 9.325 101.84 9.162 101.221 9.162C100.749 9.162 100.318 9.301 99.9258 9.577C99.5518 9.837 99.2758 10.267 99.0958 10.869L96.5318 10.138C96.8026 9.14524 97.4063 8.27569 98.2418 7.675C99.1038 7.042 100.098 6.725 101.221 6.725C102.817 6.725 104.054 7.123 104.934 7.919C105.813 8.699 106.252 10.015 106.252 11.868V19.206H103.907L103.59 17.646C102.63 18.816 101.367 19.4 99.8038 19.4ZM100.219 16.938C100.741 16.938 101.237 16.825 101.71 16.597C102.176 16.387 102.58 16.059 102.882 15.647C103.191 15.224 103.346 14.737 103.346 14.184V13.916H101.123C100.39 13.916 99.8208 14.062 99.4128 14.354C99.0228 14.63 98.8268 15.062 98.8268 15.646C98.8268 15.988 98.9498 16.288 99.1938 16.549C99.4378 16.809 99.7798 16.939 100.219 16.939V16.938ZM114.242 19.4C111.474 19.4 109.666 18.174 108.819 15.72L111.555 14.769C111.783 15.484 112.117 16.004 112.556 16.329C112.996 16.654 113.59 16.817 114.339 16.817C114.926 16.817 115.406 16.711 115.78 16.5C116.171 16.272 116.366 15.988 116.366 15.646C116.366 15.322 116.179 15.062 115.805 14.866C115.43 14.656 114.754 14.444 113.778 14.233C111.01 13.631 109.626 12.315 109.626 10.283C109.626 9.585 109.829 8.967 110.236 8.431C110.651 7.87212 111.207 7.43432 111.848 7.163C112.527 6.87176 113.258 6.72269 113.997 6.725C116.195 6.725 117.799 7.643 118.809 9.479L116.635 10.991C116.049 9.869 115.178 9.309 114.022 9.309C113.628 9.30139 113.239 9.40241 112.898 9.601C112.589 9.796 112.434 10.048 112.434 10.357C112.434 10.682 112.589 10.95 112.898 11.161C113.207 11.372 113.794 11.567 114.657 11.746C116.187 12.038 117.318 12.47 118.051 13.038C118.801 13.59 119.175 14.395 119.175 15.451C119.175 16.671 118.702 17.638 117.758 18.352C116.83 19.052 115.658 19.4 114.242 19.4ZM122.402 1.947H125.43V11.478L129.46 6.92H133.123L127.873 12.55L133.686 19.206H130.022L125.43 13.623V19.206H122.402V1.947ZM49.4268 5.336C48.8738 5.336 48.4098 5.15 48.0348 4.776C47.6608 4.402 47.4738 3.938 47.4738 3.386C47.4738 2.834 47.6608 2.37 48.0348 1.996C48.4098 1.623 48.8748 1.436 49.4268 1.436C49.9808 1.436 50.4458 1.623 50.8188 1.996C51.1938 2.37 51.3818 2.834 51.3818 3.386C51.3818 3.938 51.1938 4.402 50.8198 4.776C50.4458 5.15 49.9798 5.336 49.4268 5.336ZM47.9138 6.92H50.9418V19.206H47.9138V6.92ZM18.5148 7.142C17.5671 7.1428 16.6579 6.76715 15.9871 6.09768C15.3163 5.4282 14.9389 4.51971 14.9378 3.572C14.9381 3.10266 15.0308 2.63796 15.2106 2.20444C15.3905 1.77093 15.6539 1.37708 15.986 1.04539C16.3181 0.713697 16.7122 0.450659 17.1459 0.271291C17.5797 0.0919236 18.0445 -0.000260477 18.5138 2.24e-06C18.9832 -0.000523307 19.4482 0.0914337 19.882 0.270621C20.3159 0.449809 20.7103 0.712716 21.0425 1.04433C21.3748 1.37594 21.6385 1.76976 21.8185 2.20329C21.9985 2.63682 22.0914 3.10157 22.0918 3.571C22.0914 4.04043 21.9985 4.50518 21.8185 4.93872C21.6385 5.37225 21.3748 5.76607 21.0425 6.09768C20.7103 6.42929 20.3159 6.6922 19.882 6.87138C19.4482 7.05057 18.9832 7.14253 18.5138 7.142H18.5148ZM7.7218 7.142C7.25245 7.14253 6.7876 7.0506 6.35378 6.87148C5.91996 6.69235 5.52567 6.42954 5.19342 6.09803C4.86118 5.76653 4.59748 5.37283 4.41738 4.93941C4.23729 4.50599 4.14432 4.04135 4.1438 3.572C4.14406 3.10249 4.23683 2.63763 4.41681 2.20398C4.59679 1.77033 4.86044 1.3764 5.19272 1.04468C5.52499 0.712964 5.91937 0.449967 6.35332 0.270717C6.78727 0.0914668 7.25228 -0.000523309 7.7218 2.24e-06C8.19114 -0.000391891 8.65597 0.0916621 9.08974 0.270908C9.5235 0.450155 9.91772 0.713083 10.2499 1.04468C10.582 1.37628 10.8456 1.77005 11.0256 2.20352C11.2056 2.63699 11.2984 3.10166 11.2988 3.571C11.2984 4.04035 11.2056 4.50502 11.0256 4.93848C10.8456 5.37195 10.582 5.76573 10.2499 6.09732C9.91772 6.42892 9.5235 6.69185 9.08974 6.8711C8.65597 7.05034 8.19114 7.1424 7.7218 7.142ZM1.9108 11.589C1.0648 11.589 0.394797 12.317 0.572798 13.143C1.19687 15.9944 2.77731 18.5466 5.05177 20.3759C7.32624 22.2053 10.1579 23.2018 13.0768 23.2C19.2108 23.2 24.3368 18.893 25.5818 13.143C25.7598 12.317 25.0898 11.589 24.2438 11.589H1.9108Z" fill="black"/>
</g>
<defs>
<clipPath id="clip0_182_3731">
<rect width="134" height="24" fill="white" transform="translate(0.543945)"/>
</clipPath>
</defs>
</svg>
